<?xml version="1.0" encoding="UTF-8" standalone="no"?>
<!DOCTYPE svg PUBLIC "-//W3C//DTD SVG 1.1//EN" "http://www.w3.org/Graphics/SVG/1.1/DTD/svg11.dtd">
<svg width="100%" height="100%" viewBox="0 0 191 184" version="1.1" xmlns="http://www.w3.org/2000/svg" xmlns:xlink="http://www.w3.org/1999/xlink" xml:space="preserve" xmlns:serif="http://www.serif.com/" style="fill-rule:evenodd;clip-rule:evenodd;stroke-linejoin:round;stroke-miterlimit:2;">
    <g>
        <g transform="matrix(1,0,0,1,50.93,2.125)">
            <path id="b" d="M0,27.756L0,81.626L41.968,105.661L89.355,77.636L89.355,23.766"/>
            <path id="b1" serif:id="b" d="M0,27.756L0,81.626L41.968,105.661L89.355,77.636L89.355,23.766" style="fill:rgb(255,146,113);"/>
        </g>
        <path d="M92.899,53.917L92.899,107.787L140.286,79.761L140.286,25.891L92.899,53.917Z" style="fill:rgb(223,92,52);fill-rule:nonzero;"/>
        <path d="M50.93,29.88L99.624,2.126L140.286,25.893L92.899,53.918L50.93,29.88Z" style="fill:rgb(244,123,86);fill-rule:nonzero;"/>
        <path d="M94.013,14.49C98.95,14.157 103.88,15.243 108.22,17.619C110.706,19.081 112.064,20.607 112.256,22.198C112.448,23.788 111.628,25.173 109.694,26.341C108.777,26.908 107.766,27.307 106.709,27.521C105.84,27.726 104.949,27.816 104.057,27.79L103.083,27.713C103.174,27.93 103.234,28.159 103.263,28.393C103.232,28.947 103.055,29.482 102.75,29.945C102.243,30.805 101.519,31.517 100.65,32.01C98.626,33.213 96.304,33.826 93.95,33.78C91.514,33.846 89.106,33.237 86.993,32.023C84.994,30.843 83.97,29.457 83.893,27.867C83.908,26.151 84.906,24.589 86.455,23.852C87.185,23.397 87.98,23.055 88.812,22.839C89.476,22.647 90.159,22.531 90.849,22.493L91.554,22.493L90.272,21.723L93.872,19.479L102.212,24.391C103.506,25.088 105.068,25.088 106.362,24.391C108.131,23.288 107.499,21.839 104.467,20.043C101.245,18.269 97.581,17.454 93.911,17.696C90.021,17.744 86.214,18.838 82.893,20.864C79.87,22.754 78.371,25.007 78.397,27.624C78.397,30.188 79.998,32.472 83.111,34.306C86.508,36.206 90.368,37.125 94.257,36.961C98.129,37.024 101.943,36.011 105.274,34.036C106.427,33.353 107.461,32.486 108.336,31.471C108.921,30.85 109.358,30.105 109.616,29.291L109.796,28.483L114.549,28.752C114.557,28.897 114.557,29.042 114.549,29.188C114.462,29.581 114.346,29.966 114.203,30.342C113.997,30.945 113.721,31.522 113.383,32.062C112.895,32.789 112.328,33.459 111.693,34.062C110.855,34.87 109.931,35.585 108.938,36.192C106.078,37.909 102.91,39.05 99.612,39.552C96.018,40.18 92.349,40.244 88.735,39.744C85.45,39.357 82.275,38.319 79.396,36.691C77.071,35.46 75.209,33.506 74.092,31.125C73.169,29.025 73.169,26.632 74.092,24.532C75.199,22.107 77.042,20.092 79.358,18.773C83.772,16.06 88.833,14.581 94.013,14.489L94.013,14.49ZM98.676,27.752C98.506,26.861 97.906,26.112 97.075,25.751C96.066,25.156 94.916,24.842 93.745,24.84C92.656,24.799 91.579,25.075 90.644,25.635C89.877,26.009 89.382,26.783 89.363,27.636C89.48,28.526 90.053,29.29 90.875,29.65C91.907,30.24 93.081,30.537 94.269,30.51C95.412,30.539 96.539,30.245 97.523,29.663C98.267,29.322 98.741,28.57 98.728,27.752" style="fill:rgb(62,41,40);fill-rule:nonzero;"/>
    </g>
</svg>
