<?xml version="1.0" encoding="UTF-8" standalone="no"?>
<!DOCTYPE svg PUBLIC "-//W3C//DTD SVG 1.1//EN" "http://www.w3.org/Graphics/SVG/1.1/DTD/svg11.dtd">
<svg width="100%" height="100%" viewBox="0 0 472 359" version="1.1" xmlns="http://www.w3.org/2000/svg" xmlns:xlink="http://www.w3.org/1999/xlink" xml:space="preserve" xmlns:serif="http://www.serif.com/" style="fill-rule:evenodd;clip-rule:evenodd;stroke-linejoin:round;stroke-miterlimit:2;">
    <g>
        <path d="M229.018,355.203L9.313,225.211C2.318,221.273 -3.677,214.821 3.138,210.589L223.625,83.367C226.93,81.315 231.952,79.968 235.321,81.93L465.916,215.937C472.91,220.003 474.166,231.329 467.196,235.433L257.972,354.998C249.049,360.181 238.015,360.26 229.019,355.203L229.018,355.203Z" style="fill:rgb(91,54,160);fill-rule:nonzero;"/>
        <path d="M229.018,349.203L9.313,219.211C2.318,215.273 -3.677,208.821 3.138,204.589L223.625,77.367C226.93,75.315 231.952,73.968 235.321,75.93L465.916,209.937C472.91,214.003 474.166,225.329 467.196,229.433L257.972,348.998C249.049,354.181 238.015,354.26 229.019,349.203L229.018,349.203Z" style="fill:rgb(104,98,230);fill-rule:nonzero;"/>
        <path d="M247.133,177.693L203.78,202.46C203.78,202.46 270.563,243.26 284.219,249.006L309.187,213.093" style="fill:url(#_Linear1);fill-rule:nonzero;"/>
        <path d="M232.157,296.513L188.792,271.798L145.428,296.565C145.428,296.565 168.013,310.365 189.599,323.038C203.307,313.328 217.027,303.517 232.157,296.513Z" style="fill:url(#_Linear2);fill-rule:nonzero;"/>
        <path d="M138.728,143.883L111.223,159.595C111.223,159.595 113.554,173.999 127.211,179.745L163.221,156.658" style="fill:url(#_Linear3);fill-rule:nonzero;"/>
        <ellipse cx="152.192" cy="147.898" rx="16.59" ry="11.697" style="fill:rgb(104,225,253);"/>
        <ellipse cx="152.179" cy="140.997" rx="12.426" ry="5.092" style="fill:rgb(151,76,38);"/>
        <path d="M151.73,132.506C151.73,130.21 151.654,127.915 151.474,125.619C151.423,125.02 151.368,124.426 151.308,123.836L151.18,122.669C151.18,122.322 151,121.386 151,121.476C150.923,121.006 150.842,120.54 150.757,120.078C149.402,112.285 146.378,104.877 141.892,98.363C140.204,102.385 139.362,106.712 139.419,111.073C139.419,112.357 139.522,113.639 139.624,114.845L139.624,115.602C139.727,116.217 139.842,116.884 139.97,117.448C140.459,119.788 141.114,122.09 141.93,124.336C142.664,126.404 143.56,128.411 144.608,130.339C145.739,132.509 146.965,134.627 148.284,136.688C149.235,138.192 150.231,139.668 151.269,141.113C151.577,138.253 151.718,135.379 151.73,132.506ZM145.21,106.687C145.276,106.392 145.276,106.085 145.21,105.79C145.526,106.114 145.838,106.448 146.145,106.79C145.837,106.702 145.517,106.668 145.197,106.687L145.21,106.687Z" style="fill:rgb(153,154,28);fill-rule:nonzero;"/>
        <path d="M155.996,134.276C157.266,132.36 158.434,130.378 159.494,128.338C159.776,127.808 160.049,127.278 160.314,126.748L160.839,125.683L161.339,124.58L161.889,123.297C164.96,115.999 166.415,108.123 166.155,100.21C162.554,102.68 159.501,105.868 157.188,109.573C156.524,110.642 155.904,111.737 155.33,112.857L155.074,113.331L155.01,113.537C154.767,114.114 154.523,114.691 154.293,115.281C153.443,117.516 152.753,119.809 152.23,122.143C151.732,124.282 151.402,126.456 151.244,128.646C151.018,131.08 150.907,133.524 150.911,135.969C150.911,137.88 150.911,139.625 151.026,141.305C152.73,139.035 154.446,136.7 155.996,134.276ZM164.452,109.022C164.652,108.796 164.801,108.529 164.887,108.239C164.981,108.684 165.062,109.112 165.131,109.522C164.931,109.322 164.701,109.154 164.451,109.022L164.452,109.022Z" style="fill:rgb(153,154,28);fill-rule:nonzero;"/>
        <path d="M155.907,139.997C157.211,139.348 158.493,138.655 159.75,137.919L160.71,137.329L161.339,136.931L161.954,136.495L162.671,135.969C166.677,133.025 169.998,129.249 172.407,124.9C169.672,125.076 167.003,125.814 164.567,127.068C163.862,127.428 163.183,127.825 162.504,128.235L162.21,128.415L162.107,128.505L161.159,129.21C159.978,130.143 158.865,131.159 157.829,132.25C156.871,133.244 155.993,134.312 155.202,135.443C154.313,136.702 153.458,137.985 152.64,139.291C152.06,140.249 151.509,141.225 150.987,142.216C152.64,141.523 154.293,140.805 155.907,139.996L155.907,139.997ZM168.615,129.095C168.796,129.038 168.963,128.941 169.102,128.812C169.008,129.086 168.906,129.355 168.794,129.62C168.761,129.441 168.7,129.268 168.615,129.107L168.615,129.095ZM151.73,132.506C151.73,130.21 151.654,127.915 151.474,125.619C151.423,125.02 151.368,124.426 151.308,123.836L151.18,122.669C151.18,122.322 151,121.386 151,121.476C150.923,121.006 150.842,120.54 150.757,120.078C149.402,112.285 146.378,104.877 141.892,98.363C140.204,102.385 139.362,106.712 139.419,111.073C139.419,112.357 139.522,113.639 139.624,114.845L139.624,115.602C139.727,116.217 139.842,116.884 139.97,117.448C140.459,119.788 141.114,122.09 141.93,124.336C142.664,126.404 143.56,128.411 144.608,130.339C145.739,132.509 146.965,134.627 148.284,136.688C149.235,138.192 150.231,139.668 151.269,141.113C151.577,138.253 151.718,135.379 151.73,132.506ZM145.21,106.687C145.276,106.392 145.276,106.085 145.21,105.79C145.526,106.114 145.838,106.448 146.145,106.79C145.837,106.702 145.517,106.668 145.197,106.687L145.21,106.687Z" style="fill:rgb(153,154,28);fill-rule:nonzero;"/>
        <path d="M155.996,134.276C157.266,132.36 158.434,130.378 159.494,128.338C159.776,127.808 160.049,127.278 160.314,126.748L160.839,125.683L161.339,124.58L161.889,123.297C164.96,115.999 166.415,108.123 166.155,100.21C162.554,102.68 159.501,105.868 157.188,109.573C156.524,110.642 155.904,111.737 155.33,112.857L155.074,113.331L155.01,113.537C154.767,114.114 154.523,114.691 154.293,115.281C153.443,117.516 152.753,119.809 152.23,122.143C151.732,124.282 151.402,126.456 151.244,128.646C151.018,131.08 150.907,133.524 150.911,135.969C150.911,137.88 150.911,139.625 151.026,141.305C152.73,139.035 154.446,136.7 155.996,134.276ZM164.452,109.022C164.652,108.796 164.801,108.529 164.887,108.239C164.981,108.684 165.062,109.112 165.131,109.522C164.931,109.322 164.701,109.154 164.451,109.022L164.452,109.022Z" style="fill:rgb(153,154,28);fill-rule:nonzero;"/>
        <path d="M155.907,139.997C157.211,139.348 158.493,138.655 159.75,137.919L160.71,137.329L161.339,136.931L161.954,136.495L162.671,135.969C166.677,133.025 169.998,129.249 172.407,124.9C169.672,125.076 167.003,125.814 164.567,127.068C163.862,127.428 163.183,127.825 162.504,128.235L162.21,128.415L162.107,128.505L161.159,129.21C159.978,130.143 158.865,131.159 157.829,132.25C156.871,133.244 155.993,134.312 155.202,135.443C154.313,136.702 153.458,137.985 152.64,139.291C152.06,140.249 151.509,141.225 150.987,142.216C152.64,141.523 154.293,140.805 155.907,139.996L155.907,139.997ZM168.615,129.095C168.796,129.038 168.963,128.941 169.102,128.812C169.008,129.086 168.906,129.355 168.794,129.62C168.761,129.441 168.7,129.268 168.615,129.107L168.615,129.095Z" style="fill:rgb(153,154,28);fill-rule:nonzero;"/>
        <path d="M264.35,168.022L240.356,179.565C238.446,180.485 237.226,182.427 237.226,184.547C237.226,186.512 238.274,188.336 239.972,189.325L296.839,222.545C299.378,224.03 302.68,223.238 304.269,220.763L318.092,199.24" style="fill:rgb(161,72,45);fill-rule:nonzero;"/>
        <path d="M394.854,112.344L203.524,1.962C200.857,0.426 197.562,0.43 194.898,1.972C192.233,3.516 190.586,6.372 190.586,9.452L190.586,124.285C190.586,126.847 191.955,129.222 194.173,130.505L398.146,248.39C399.576,249.22 401.347,249.221 402.778,248.393C404.21,247.565 405.093,246.029 405.09,244.375L405.09,130.018C405.086,122.729 401.174,115.975 394.854,112.344Z" style="fill:rgb(244,123,86);fill-rule:nonzero;"/>
        <path d="M203.537,10.646L389.089,117.526C393.117,119.85 395.608,124.161 395.609,128.812L395.609,214.888C395.607,216.562 394.712,218.113 393.265,218.953C391.818,219.792 390.029,219.797 388.577,218.967L199.348,110.304C197.908,109.477 197.017,107.938 197.017,106.277L197.017,14.429C197.017,12.874 197.844,11.437 199.188,10.657C200.53,9.878 202.192,9.874 203.538,10.646L203.537,10.646Z" style="fill:white;fill-rule:nonzero;"/>
        <g transform="matrix(0.981959,-0.189095,0.189095,0.981959,-26.7911,56.1256)">
            <ellipse cx="280.738" cy="168.465" rx="4.036" ry="4.617" style="fill:rgb(171,100,60);"/>
        </g>
        <path d="M253.41,127.427L339.64,179.296L382.235,154.503L306.126,110.15" style="fill:url(#_Linear4);fill-rule:nonzero;"/>
        <path d="M359.97,117.102L266.746,60.192C265.731,59.605 264.473,59.615 263.468,60.22C262.462,60.825 261.862,61.931 261.903,63.104L261.903,95.53C261.895,96.721 262.514,97.833 263.53,98.454L356.742,154.158C357.739,154.725 358.962,154.718 359.952,154.138C360.941,153.559 361.55,152.494 361.546,151.348L362.033,121.118C362.106,119.51 361.319,117.98 359.97,117.103L359.97,117.102Z" style="fill:rgb(226,172,0);fill-rule:nonzero;"/>
        <path d="M337.667,133.789C341.01,138.47 346.89,139.779 350.785,136.726C354.679,133.673 355.128,127.402 351.785,122.733C348.44,118.064 342.56,116.743 338.665,119.796C334.771,122.848 334.323,129.107 337.667,133.789Z" style="fill:white;fill-rule:nonzero;"/>
        <path d="M328.52,111.318L290.497,88.398C289.824,88.083 289.011,88.335 288.635,88.976C288.258,89.618 288.434,90.451 289.037,90.886L327.059,113.806C327.732,114.121 328.545,113.869 328.921,113.228C329.298,112.587 329.123,111.754 328.52,111.318ZM326.957,120.63L274.547,89.039C274.395,88.987 274.236,88.96 274.076,88.96C273.281,88.96 272.626,89.615 272.626,90.41C272.626,90.842 272.819,91.252 273.151,91.527L325.496,123.13C326.169,123.445 326.982,123.193 327.358,122.552C327.735,121.911 327.56,121.078 326.957,120.642L326.957,120.629L326.957,120.63Z" style="fill:rgb(242,242,242);fill-rule:nonzero;"/>
        <path d="M341.369,123.387L248.196,66.49C247.181,65.903 245.923,65.913 244.918,66.518C243.912,67.123 243.312,68.229 243.353,69.402L243.353,101.813C243.338,103.007 243.952,104.124 244.968,104.751L338.179,160.454C339.187,161.034 340.429,161.024 341.427,160.429C342.425,159.834 343.026,158.743 342.996,157.581L343.483,127.351C343.527,125.751 342.722,124.242 341.369,123.387Z" style="fill:rgb(244,123,86);fill-rule:nonzero;"/>
        <path d="M319.065,140.074C322.409,144.755 328.289,146.064 332.184,143.011C336.078,139.958 336.526,133.686 333.183,129.018C329.839,124.348 323.959,123.028 320.065,126.08C316.17,129.133 315.722,135.392 319.065,140.074Z" style="fill:white;fill-rule:nonzero;"/>
        <path d="M309.918,117.602L271.87,94.682C271.197,94.367 270.384,94.619 270.008,95.26C269.631,95.902 269.807,96.735 270.41,97.17L308.432,120.09C309.105,120.405 309.918,120.153 310.294,119.512C310.671,118.871 310.496,118.038 309.893,117.602L309.918,117.602ZM308.343,126.978L255.946,95.336C255.272,95.021 254.46,95.273 254.084,95.915C253.707,96.557 253.883,97.39 254.486,97.825L306.895,129.415C307.568,129.73 308.381,129.478 308.757,128.837C309.134,128.195 308.958,127.362 308.355,126.927L308.343,126.978Z" style="fill:rgb(242,242,242);fill-rule:nonzero;"/>
        <path d="M317.99,127.21L224.79,70.313C223.775,69.725 222.517,69.736 221.512,70.34C220.507,70.945 219.907,72.051 219.948,73.224L219.948,105.636C219.94,106.827 220.559,107.939 221.575,108.56L314.786,164.264C315.794,164.844 317.036,164.834 318.035,164.238C319.032,163.643 319.633,162.552 319.603,161.391L320.09,131.16C320.132,129.568 319.333,128.066 317.99,127.21Z" style="fill:rgb(104,225,253);fill-rule:nonzero;"/>
        <path d="M317.99,127.21L224.79,70.313C223.775,69.725 222.517,69.736 221.512,70.34C220.507,70.945 219.907,72.051 219.948,73.224L219.948,105.636C219.94,106.827 220.559,107.939 221.575,108.56L314.786,164.264C315.794,164.844 317.036,164.834 318.035,164.238C319.032,163.643 319.633,162.552 319.603,161.391L320.09,131.16C320.132,129.568 319.333,128.066 317.99,127.21Z" style="fill:rgb(104,225,253);fill-rule:nonzero;"/>
        <path d="M295.673,143.896C299.016,148.577 304.897,149.886 308.791,146.833C312.686,143.78 313.134,137.508 309.791,132.84C306.447,128.171 300.566,126.85 296.672,129.903C292.778,132.955 292.368,139.214 295.672,143.896L295.673,143.896Z" style="fill:white;fill-rule:nonzero;"/>
        <path d="M286.526,121.425L248.491,98.505C247.818,98.19 247.005,98.442 246.629,99.083C246.252,99.724 246.427,100.557 247.03,100.993L285.053,123.913C285.726,124.228 286.539,123.976 286.915,123.335C287.292,122.693 287.116,121.86 286.513,121.425L286.526,121.425ZM284.95,130.75L232.541,99.158C231.867,98.843 231.055,99.095 230.679,99.737C230.302,100.379 230.478,101.212 231.081,101.647L283.49,133.237C284.163,133.552 284.976,133.3 285.352,132.659C285.729,132.017 285.553,131.184 284.95,130.749L284.95,130.75Z" style="fill:rgb(242,242,242);fill-rule:nonzero;"/>
        <path d="M195.672,124.028C189.649,129.22 185.093,135.903 182.464,143.408C177.826,156.235 189.42,177.192 189.42,177.192L207.458,162.892" style="fill:rgb(255,143,111);fill-rule:nonzero;"/>
        <path d="M193.724,293.602L188.831,290.896L190.111,283.893C190.111,283.893 197.401,284.585 198.041,287.176" style="fill:rgb(0,59,148);fill-rule:nonzero;"/>
        <path d="M195.518,293.5C196.62,292.82 197.773,292.217 198.913,291.614C201.743,290.062 205.831,288.459 207.573,285.547C208.302,284.344 208.21,282.807 207.343,281.699C204.78,278.595 199.169,283.7 196.299,280.263C195.736,279.583 195.467,268.796 195.467,268.796L184.552,271.746C184.552,271.746 182.707,293.422 182.912,294.756C183.117,296.09 186.871,297.322 186.871,297.322C187.989,297.084 189.056,296.65 190.022,296.039C191.162,295.205 190.124,285.034 191.585,286.458C193.045,287.882 193.685,293.448 193.685,293.448C194.292,293.54 194.907,293.558 195.518,293.499L195.518,293.5Z" style="fill:rgb(244,123,86);fill-rule:nonzero;"/>
        <path d="M214.568,304.08L209.674,301.413L210.954,294.41C210.954,294.41 218.244,295.103 218.884,297.693" style="fill:rgb(0,59,148);fill-rule:nonzero;"/>
        <path d="M216.412,303.978C217.514,303.298 218.667,302.696 219.807,302.093C222.638,300.541 226.725,298.938 228.467,296.026C229.196,294.823 229.104,293.286 228.237,292.178C225.674,289.074 220.063,294.179 217.194,290.742C216.63,290.062 216.361,279.275 216.361,279.275L205.446,282.225C205.446,282.225 203.589,303.978 203.794,305.261C203.999,306.543 207.752,307.826 207.752,307.826C208.87,307.588 209.937,307.154 210.904,306.543C212.044,305.71 211.006,295.539 212.467,296.963C213.927,298.386 214.567,303.953 214.567,303.953C215.179,304.037 215.798,304.046 216.412,303.978Z" style="fill:rgb(244,123,86);fill-rule:nonzero;"/>
        <path d="M179.005,233.614L175.789,276.672C175.789,276.672 180.914,283.752 198.093,279.814L198.259,250.788M198.849,242.144C198.477,245.85 198.849,286.74 198.849,286.74C198.849,286.74 203.601,295.641 224.291,286.74L223.996,251.994" style="fill:rgb(62,41,40);fill-rule:nonzero;"/>
        <path d="M177.403,247.838C178.813,248.813 179.299,243.798 180.773,244.658C186.132,247.775 191.821,250.287 197.734,252.148L197.862,252.148C198.021,252.071 198.195,252.03 198.372,252.03C198.833,252.03 199.252,252.304 199.438,252.725C203.091,253.816 206.809,254.673 210.571,255.29C215.401,256.06 219.397,252.482 224.355,252.238C224.355,233.23 224.445,179.129 216.361,167.586L192.443,159.531C192.328,161.506 180.837,174.845 181.118,191.109C181.438,209.437 179.056,226.727 178.646,232.46C178.582,233.435 177.455,246.8 177.403,247.838Z" style="fill:rgb(62,41,40);fill-rule:nonzero;"/>
        <path d="M218.564,145.73L216.361,167.534C216.361,167.534 198.516,168.253 190.829,162.943L190.829,144.447" style="fill:rgb(255,143,111);fill-rule:nonzero;"/>
        <path d="M241.252,131.378L239.433,133.866C240.403,131.842 241.259,129.766 241.995,127.646C242.508,126.196 240.189,125.619 239.677,127.068L239.407,127.812C239.63,127.042 239.839,126.269 240.035,125.49C240.062,125.39 240.075,125.287 240.075,125.183C240.075,124.528 239.536,123.988 238.88,123.988C238.326,123.988 237.841,124.373 237.716,124.913C237.214,126.926 236.611,128.912 235.91,130.865C236.302,129.131 236.584,127.374 236.756,125.605C236.91,124.08 234.514,124.144 234.373,125.605C234.174,127.619 233.814,129.614 233.297,131.57C233.297,130.886 233.233,130.202 233.105,129.518C233.07,129.173 232.887,128.859 232.605,128.658C232.54,128.39 232.463,128.124 232.375,127.863C232.211,127.374 231.75,127.043 231.234,127.043C230.582,127.043 230.043,127.572 230.03,128.223L229.876,137.201C229.443,138.131 228.877,138.996 228.198,139.766C229.351,140.564 230.463,141.42 231.529,142.331C232.48,143.136 233.387,143.992 234.245,144.896C235.011,143.942 235.75,142.967 236.461,141.972C236.549,141.897 236.627,141.811 236.691,141.715C238.825,138.554 241.029,135.441 243.302,132.378C244.25,131.326 242.162,130.159 241.252,131.378Z" style="fill:rgb(255,181,169);fill-rule:nonzero;"/>
        <path d="M207.24,125.85C207.24,125.85 215.67,128.12 219.09,133.545C221.232,137.301 223.12,141.196 224.74,145.205L230.965,135.52C230.965,135.52 238.524,137.842 241.521,141.562C241.521,141.562 232.554,161.185 224.739,162.866C216.925,164.546 208.623,151.348 208.623,151.348C208.623,151.348 206.907,156.863 207.24,150.976" style="fill:rgb(255,143,111);fill-rule:nonzero;"/>
        <path d="M212.595,146.82C210.145,144.824 208.295,142.186 207.253,139.202C206.24,135.752 207.509,132.724 208.687,129.518C209.963,126.339 210.708,122.972 210.891,119.552C210.993,116.192 210.609,112.832 210.378,109.483C210.345,109.34 210.345,109.19 210.378,109.047C209.251,105.264 206.945,102.057 202.398,101.672C190.624,100.672 189.958,113.729 190.048,119.039C190.138,124.349 190.701,127.94 186.794,130.159C182.886,132.378 180.068,138.201 183.796,142.909C187.524,147.615 184.18,145.897 181.695,150.078C179.21,154.259 179.85,159.48 184.949,161.365C190.048,163.25 213.748,159.71 215.925,157.517C216.698,156.633 217.098,155.483 217.04,154.311C216.509,151.361 214.93,148.7 212.595,146.821L212.595,146.82Z" style="fill:rgb(0,127,104);fill-rule:nonzero;"/>
        <path d="M224.176,39.132C226.171,42.008 227.325,45.384 227.506,48.88C227.729,50.48 227.341,52.107 226.418,53.433C225.613,54.32 224.297,54.549 223.24,53.985C222.593,53.727 222.007,53.333 221.524,52.831C221.089,52.423 220.718,51.951 220.422,51.433L220.115,50.83C220.031,50.988 219.928,51.134 219.807,51.266C219.502,51.504 219.14,51.659 218.757,51.715C218.116,51.834 217.454,51.753 216.861,51.484C215.445,50.87 214.266,49.812 213.504,48.47C212.585,47.011 212.072,45.333 212.018,43.609C211.828,42.214 212.265,40.804 213.21,39.761C214.039,38.96 215.289,38.764 216.323,39.273C216.836,39.478 217.309,39.773 217.719,40.146C218.069,40.443 218.378,40.783 218.641,41.159L218.871,41.569L218.871,40.428L221.434,41.428L221.69,48.637C221.708,49.153 221.868,49.654 222.152,50.086C222.392,50.503 222.761,50.831 223.202,51.022C224.44,51.51 225.012,50.441 224.919,47.816C224.79,45.217 223.933,42.705 222.446,40.569C221.111,38.397 219.125,36.701 216.771,35.721C215.027,34.833 212.906,35.104 211.441,36.401C209.892,37.96 209.132,40.142 209.379,42.326C209.525,45.075 210.41,47.734 211.941,50.022C213.159,52.28 215.079,54.081 217.411,55.152C218.223,55.492 219.095,55.662 219.974,55.652C220.546,55.691 221.119,55.585 221.639,55.345L222.152,55.062L223.702,57.948L223.445,58.128C223.202,58.265 222.95,58.385 222.69,58.487C222.28,58.664 221.85,58.785 221.408,58.847C220.843,58.923 220.27,58.923 219.705,58.847C218.962,58.758 218.235,58.573 217.54,58.295C215.567,57.445 213.813,56.155 212.415,54.524C210.757,52.689 209.415,50.591 208.444,48.316C207.471,46.143 206.915,43.806 206.804,41.428C206.666,39.428 207.074,37.429 207.983,35.644C208.737,34.147 210.041,32.997 211.621,32.437C213.276,31.891 215.077,31.983 216.668,32.694C219.777,34.01 222.401,36.26 224.176,39.132ZM218.526,48.252C218.946,47.714 219.136,47.031 219.051,46.353C219.031,45.517 218.797,44.701 218.372,43.981C218.025,43.353 217.48,42.857 216.822,42.57C216.306,42.304 215.676,42.386 215.246,42.775C214.799,43.284 214.594,43.963 214.683,44.635C214.712,45.481 214.963,46.304 215.413,47.02C215.783,47.672 216.353,48.185 217.04,48.483C217.532,48.735 218.134,48.642 218.526,48.252M375.433,178.013C377.432,180.887 378.585,184.265 378.763,187.761C378.986,189.361 378.598,190.988 377.675,192.314C376.868,193.197 375.556,193.425 374.498,192.866C373.852,192.604 373.267,192.211 372.781,191.712C372.348,191.301 371.977,190.83 371.679,190.313L371.372,189.711C371.285,189.867 371.182,190.013 371.064,190.147C370.76,190.387 370.398,190.542 370.014,190.596C369.379,190.724 368.72,190.647 368.131,190.378C366.713,189.761 365.534,188.698 364.774,187.351C363.847,185.89 363.329,184.207 363.275,182.477C363.078,181.082 363.516,179.669 364.467,178.629C365.292,177.83 366.537,177.635 367.567,178.142C368.081,178.346 368.554,178.641 368.963,179.014C369.313,179.316 369.623,179.661 369.886,180.04L370.129,180.45L370.129,179.309L372.691,180.296L372.948,187.505C372.97,188.02 373.129,188.52 373.408,188.954C373.65,189.371 374.018,189.699 374.459,189.89C375.74,190.378 376.266,189.313 376.189,186.684C376.059,184.081 375.202,181.565 373.716,179.424C372.381,177.26 370.4,175.569 368.054,174.589C366.312,173.702 364.194,173.967 362.724,175.256C361.182,176.833 360.442,179.031 360.714,181.22C360.857,183.969 361.743,186.628 363.275,188.915C364.54,191.119 366.481,192.86 368.81,193.879C369.622,194.217 370.493,194.392 371.372,194.392C371.944,194.425 372.515,194.32 373.037,194.084L373.55,193.802L375.1,196.688L374.844,196.868C374.6,197.005 374.348,197.125 374.088,197.227C373.676,197.397 373.246,197.517 372.807,197.586C372.237,197.662 371.66,197.662 371.09,197.586C370.351,197.493 369.628,197.303 368.938,197.022C366.966,196.176 365.213,194.89 363.813,193.263C362.155,191.423 360.814,189.321 359.843,187.043C358.869,184.87 358.313,182.533 358.203,180.155C358.064,178.16 358.471,176.164 359.381,174.383C360.137,172.885 361.44,171.732 363.019,171.164C364.679,170.624 366.482,170.715 368.079,171.421C371.152,172.806 373.722,175.109 375.433,178.013ZM369.783,187.133C370.208,186.597 370.402,185.913 370.321,185.234C370.299,184.397 370.061,183.58 369.63,182.862C369.289,182.233 368.748,181.736 368.092,181.451C367.579,181.182 366.95,181.258 366.517,181.643C366.062,182.148 365.851,182.829 365.94,183.503C365.97,184.345 366.221,185.163 366.67,185.876C367.039,186.531 367.61,187.048 368.297,187.351C368.786,187.606 369.388,187.518 369.783,187.133" style="fill:rgb(244,123,86);fill-rule:nonzero;"/>
        <path d="M120.139,232.704L76.774,208L33.423,232.754C33.423,232.754 57.545,247.837 79.132,260.51C92.839,250.813 105.022,239.719 120.139,232.703L120.139,232.704Z" style="fill:url(#_Linear5);fill-rule:nonzero;"/>
    </g>
    <defs>
        <linearGradient id="_Linear1" x1="0" y1="0" x2="1" y2="0" gradientUnits="userSpaceOnUse" gradientTransform="matrix(-21.4956,13.3498,-13.3498,-21.4956,268.269,203.95)"><stop offset="0" style="stop-color:rgb(120,180,106);stop-opacity:0.25"/><stop offset="0.03" style="stop-color:rgb(127,53,0);stop-opacity:0.25"/><stop offset="1" style="stop-color:white;stop-opacity:0.25"/></linearGradient>
        <linearGradient id="_Linear2" x1="0" y1="0" x2="1" y2="0" gradientUnits="userSpaceOnUse" gradientTransform="matrix(-45.3888,17.3934,-17.3934,-45.3888,216.707,286.411)"><stop offset="0" style="stop-color:rgb(120,180,106);stop-opacity:0.25"/><stop offset="0.03" style="stop-color:rgb(127,53,0);stop-opacity:0.25"/><stop offset="1" style="stop-color:white;stop-opacity:0.25"/></linearGradient>
        <linearGradient id="_Linear3" x1="0" y1="0" x2="1" y2="0" gradientUnits="userSpaceOnUse" gradientTransform="matrix(-30.7324,16.0504,-16.0504,-30.7324,153.165,151.724)"><stop offset="0" style="stop-color:rgb(120,180,106);stop-opacity:0.46"/><stop offset="0.03" style="stop-color:rgb(127,53,0);stop-opacity:0.46"/><stop offset="1" style="stop-color:white;stop-opacity:0.46"/></linearGradient>
        <linearGradient id="_Linear4" x1="0" y1="0" x2="1" y2="0" gradientUnits="userSpaceOnUse" gradientTransform="matrix(-17.4609,-3.67304,3.67304,-17.4609,357.779,152.045)"><stop offset="0" style="stop-color:white;stop-opacity:0"/><stop offset="0.99" style="stop-color:rgb(220,132,30);stop-opacity:0.32"/><stop offset="1" style="stop-color:rgb(220,132,30);stop-opacity:0.32"/></linearGradient>
        <linearGradient id="_Linear5" x1="0" y1="0" x2="1" y2="0" gradientUnits="userSpaceOnUse" gradientTransform="matrix(-45.375,18.2667,-18.2667,-45.375,104.689,222.46)"><stop offset="0" style="stop-color:rgb(120,180,106);stop-opacity:0.25"/><stop offset="0.03" style="stop-color:rgb(127,53,0);stop-opacity:0.25"/><stop offset="1" style="stop-color:white;stop-opacity:0.25"/></linearGradient>
    </defs>
</svg>
